<svg xmlns="http://www.w3.org/2000/svg" width="1200" height="630" viewBox="0 0 1200 630">
  <defs>
    <linearGradient id="bg" x1="0" y1="0" x2="1" y2="1">
      <stop offset="0%" stop-color="#0f172a"/>
      <stop offset="100%" stop-color="#134e4a"/>
    </linearGradient>
    <linearGradient id="logo" x1="0" y1="0" x2="1" y2="1">
      <stop offset="0%" stop-color="#0d9488"/>
      <stop offset="100%" stop-color="#059669"/>
    </linearGradient>
    <linearGradient id="text" x1="0" y1="0" x2="1" y2="1">
      <stop offset="0%" stop-color="#5eead4"/>
      <stop offset="100%" stop-color="#34d399"/>
    </linearGradient>
  </defs>
  <rect width="1200" height="630" fill="url(#bg)"/>
  <rect x="520" y="120" width="80" height="80" rx="20" fill="url(#logo)"/>
  <g transform="translate(540,140)" fill="none" stroke="#fff" stroke-width="1.5" stroke-linecap="round" stroke-linejoin="round">
    <path d="M20 37s13.3-6.7 13.3-16.7V10L20 6 6.7 10v10.3C6.7 30.3 20 37 20 37z"/>
    <circle cx="20" cy="20" r="6.7"/>
    <path d="M20 16.7v3.3l2.5 2.5"/>
  </g>
  <text x="600" y="260" text-anchor="middle" font-family="system-ui,-apple-system,sans-serif" font-size="64" font-weight="800" fill="url(#text)">AyaMir</text>
  <text x="600" y="310" text-anchor="middle" font-family="system-ui,-apple-system,sans-serif" font-size="24" fill="#94a3b8">Protect your time, build your legacy.</text>
  <g transform="translate(200,370)">
    <rect width="180" height="80" rx="12" fill="#1e293b" stroke="#334155" stroke-width="1"/>
    <text x="90" y="35" text-anchor="middle" font-family="system-ui" font-size="13" font-weight="700" fill="#5eead4">Smart Tasks</text>
    <text x="90" y="55" text-anchor="middle" font-family="system-ui" font-size="11" fill="#94a3b8">Priority queue + reminders</text>
  </g>
  <g transform="translate(410,370)">
    <rect width="180" height="80" rx="12" fill="#1e293b" stroke="#334155" stroke-width="1"/>
    <text x="90" y="35" text-anchor="middle" font-family="system-ui" font-size="13" font-weight="700" fill="#5eead4">Deep Work</text>
    <text x="90" y="55" text-anchor="middle" font-family="system-ui" font-size="11" fill="#94a3b8">Pomodoro + site blocking</text>
  </g>
  <g transform="translate(620,370)">
    <rect width="180" height="80" rx="12" fill="#1e293b" stroke="#334155" stroke-width="1"/>
    <text x="90" y="35" text-anchor="middle" font-family="system-ui" font-size="13" font-weight="700" fill="#5eead4">Gamification</text>
    <text x="90" y="55" text-anchor="middle" font-family="system-ui" font-size="11" fill="#94a3b8">XP, levels, achievements</text>
  </g>
  <g transform="translate(830,370)">
    <rect width="180" height="80" rx="12" fill="#1e293b" stroke="#334155" stroke-width="1"/>
    <text x="90" y="35" text-anchor="middle" font-family="system-ui" font-size="13" font-weight="700" fill="#5eead4">100% Private</text>
    <text x="90" y="55" text-anchor="middle" font-family="system-ui" font-size="11" fill="#94a3b8">Zero network requests</text>
  </g>
  <text x="600" y="520" text-anchor="middle" font-family="system-ui" font-size="16" font-weight="600" fill="#64748b">Chrome Extension for Productivity</text>
  <rect x="450" y="545" width="300" height="44" rx="12" fill="url(#logo)"/>
  <text x="600" y="573" text-anchor="middle" font-family="system-ui" font-size="14" font-weight="700" fill="#fff">Install Free</text>
</svg>
